#!OML:ASF H:\Punching\Project 1\Capture day 1\Session 1\female.ASF
:FULLY-SPECIFIED
:DEGREES
1508
root -0.44437 14.9697 0.975059 11.8144 -12.1785 -2.33075
lowerback 1.63733 2.99886 -0.417397
upperback -5.24681 4.02825 0.529326
thorax -6.43287 2.0309 0.491521
lowerneck -10.1229 -0.705754 8.50126
upperneck 30.2895 -4.31596 4.16726
head 11.5598 -0.49717 -0.468153
rclavicle 4.66197e-014 4.73356e-015
rhumerus 14.8525 12.804 -76.5495
rradius 110.667
rwrist -42.5138
rhand -19.8942 -23.0116
rfingers 7.12502
rthumb 6.44192 -52.8936
lclavicle 4.66197e-014 4.73356e-015
lhumerus 27.9385 -36.3683 78.0119
lradius 131.729
lwrist 17.7437
lhand -20.7375 9.55345
lfingers 7.12502
lthumb 5.62777 39.4587
rfemur 4.16784 -4.3598 8.10507
rtibia 15.8676
rfoot -17.4863 -21.4328
rtoes -20.7458
lfemur -37.3956 -0.222907 -2.2878
ltibia 34.119
lfoot -4.78226 15.869
ltoes -2.2134
1509
root -0.421833 14.9931 0.988512 11.7753 -14.7481 -2.31443
lowerback 1.72883 2.90104 -0.694113
upperback -5.23708 3.86452 0.243234
thorax -6.47072 1.95423 0.355868
lowerneck -10.011 -0.281982 9.1718
upperneck 30.3192 -3.85536 4.10205
head 11.5584 -0.234118 -0.548806
rclavicle -1.59525e-014 -3.97569e-015
rhumerus 12.7178 13.9084 -77.5822
rradius 114.681
rwrist -41.995
rhand -19.0556 -22.0965
rfingers 7.12502
rthumb 7.25151 -51.9522
lclavicle -1.59525e-014 -3.97569e-015
lhumerus 28.1626 -36.1319 77.6393
lradius 131.859
lwrist 18.08
lhand -20.8849 9.77618
lfingers 7.12502
lthumb 5.48552 39.6852
rfemur 3.14085 -3.60908 7.40346
rtibia 16.0973
rfoot -17.1264 -20.3174
rtoes -20.9486
lfemur -36.043 0.504541 -2.27155
ltibia 33.9889
lfoot -5.55208 17.3236
ltoes -1.15807
1510
root -0.398934 15.0141 1.00434 11.6566 -17.303 -2.19376
lowerback 1.8542 2.78315 -1.02662
upperback -5.25164 3.66766 -0.0788724
thorax -6.55514 1.86297 0.214008
lowerneck -9.7549 0.0882015 9.76732
upperneck 30.2882 -3.43702 4.06185
head 11.5076 -0.00181464 -0.612235
rclavicle -3.37313e-014 -1.74931e-014
rhumerus 10.5913 14.8945 -78.5328
rradius 118.471
rwrist -41.6683
rhand -18.3746 -21.496
rfingers 7.12502
rthumb 7.90881 -51.328
lclavicle -3.37313e-014 -1.74931e-014
lhumerus 28.2953 -35.9304 77.2841
lradius 132.035
lwrist 18.3542
lhand -21.038 9.93701
lfingers 7.12502
lthumb 5.33769 39.8498
rfemur 2.15964 -2.84569 6.60263
rtibia 16.3295
rfoot -16.8029 -19.2037
rtoes -21.1368
lfemur -34.6365 1.21599 -2.41091
ltibia 33.8508
lfoot -6.36066 18.7389
ltoes -0.149275
1511
root -0.376602 15.0317 1.02131 11.4341 -19.7904 -1.95961
lowerback 2.02603 2.62762 -1.43794
upperback -5.26164 3.41287 -0.412289
thorax -6.6654 1.74682 0.106992
lowerneck -9.44858 0.42021 10.2827
upperneck 30.2184 -3.03906 4.0083
head 11.4332 0.20746 -0.670239
rclavicle -4.52608e-014 -3.97569e-015
rhumerus 8.56445 15.7664 -79.3798
rradius 121.992
rwrist -41.5676
rhand -17.8488 -21.1344
rfingers 7.12502
rthumb 8.41626 -50.9467
lclavicle -4.52608e-014 -3.97569e-015
lhumerus 28.3766 -35.7133 76.9373
lradius 132.257
lwrist 18.5702
lhand -21.1683 10.0347
lfingers 7.12502
lthumb 5.2118 39.9506
rfemur 1.23268 -2.08913 5.71409
rtibia 16.5994
rfoot -16.544 -18.1154
rtoes -21.3152
lfemur -33.2031 1.89966 -2.70192
ltibia 33.7101
lfoot -7.18393 20.0833
ltoes 0.791369
1512
root -0.355427 15.0449 1.0377 11.1095 -22.1462 -1.63192
lowerback 2.25563 2.41434 -1.9245
upperback -5.26355 3.07383 -0.720541
thorax -6.80488 1.59393 0.0734017
lowerneck -9.11503 0.731052 10.6986
upperneck 30.116 -2.6294 3.91805
head 11.3415 0.404358 -0.724635
rclavicle -1.72694e-015 -1.19271e-014
rhumerus 6.69809 16.536 -80.1175
rradius 125.196
rwrist -41.6864
rhand -17.4364 -20.9416
rfingers 7.12502
rthumb 8.81426 -50.7376
lclavicle -1.72694e-015 -1.19271e-014
lhumerus 28.3908 -35.4385 76.6173
lradius 132.534
lwrist 18.7245
lhand -21.2561 10.086
lfingers 7.12502
lthumb 5.12712 40.0039
rfemur 0.360802 -1.35752 4.78383
rtibia 16.9311
rfoot -16.3794 -17.0875
rtoes -21.4383
lfemur -31.7969 2.54619 -3.10614
ltibia 33.5806
lfoot -7.98907 21.3256
ltoes 1.63284
1513
root -0.335571 15.0531 1.0529 10.7083 -24.3162 -1.251
lowerback 2.52969 2.16221 -2.44828
upperback -5.22221 2.67758 -1.00654
thorax -6.92462 1.41565 0.0900582
lowerneck -8.93678 1.01362 11.1069
upperneck 30.0121 -2.25328 3.74273
head 11.2791 0.57858 -0.814039
rclavicle -1.21507e-014 -5.1684e-015
rhumerus 5.08424 17.0887 -80.7398
rradius 128.041
rwrist -41.9878
rhand -17.0419 -20.8607
rfingers 7.12502
rthumb 9.19495 -50.6402
lclavicle -1.21507e-014 -5.1684e-015
lhumerus 28.4776 -35.1351 76.2551
lradius 132.846
lwrist 18.8536
lhand -21.3057 10.1129
lfingers 7.12502
lthumb 5.07915 40.0321
rfemur -0.448344 -0.677538 3.86903
rtibia 17.3116
rfoot -16.3011 -16.146
rtoes -21.521
lfemur -30.4785 3.14265 -3.56531
ltibia 33.491
lfoot -8.76681 22.4485
ltoes 2.39969
1514
root -0.31736 15.0569 1.06551 10.2872 -26.2286 -0.846402
lowerback 2.79831 1.8407 -2.99087
upperback -5.14474 2.18778 -1.23721
thorax -7.00076 1.19395 0.187317
lowerneck -8.8837 1.2859 11.4605
upperneck 29.9091 -1.87536 3.49361
head 11.2417 0.741993 -0.921402
rclavicle -4.05893e-014 1.03368e-014
rhumerus 3.77858 17.4631 -81.2467
rradius 130.481
rwrist -42.4676
rhand -16.6943 -20.7122
rfingers 7.12502
rthumb 9.53029 -50.4767
lclavicle -4.05893e-014 1.03368e-014
lhumerus 28.5911 -34.7633 75.8912
lradius 133.19
lwrist 18.9392
lhand -21.34 10.1869
lfingers 7.12502
lthumb 5.04602 40.1068
rfemur -1.19 -0.0876431 3.01801
rtibia 17.6996
rfoot -16.2907 -15.3293
rtoes -21.576
lfemur -29.3501 3.67648 -4.03842
ltibia 33.4757
lfoot -9.48103 23.4252
ltoes 3.071
